<svg width="25" height="27" viewBox="0 0 25 27" fill="none" xmlns="http://www.w3.org/2000/svg">
<path fill-rule="evenodd" clip-rule="evenodd" d="M4.82502 1.25142C2.56164 4.76235 1.25753 7.38142 0.56799 9.80048C0.0638516 11.5694 -0.0427341 12.4213 0.0135657 14.2326C0.0745997 16.1971 0.420076 17.5272 1.22222 18.887C1.868 19.9816 3.47242 21.6371 4.52292 22.2926C5.43216 22.8601 7.32358 23.742 7.63143 23.742C7.8107 23.742 7.78971 23.3817 7.53892 22.1546C6.84695 18.768 6.44939 13.9839 6.44939 9.04129C6.44939 6.54507 6.481 6.00452 6.62674 6.00452C6.81317 6.00452 6.9923 6.65632 7.27137 8.35111C7.35889 8.88255 7.47674 9.5037 7.53304 9.73146C7.58946 9.95922 7.70846 10.5183 7.79752 10.9738C8.36051 13.8525 9.3203 17.3697 10.0008 19.0488C10.2201 19.5896 10.2661 19.6342 10.3572 19.3939C10.4148 19.242 10.466 18.905 10.471 18.6448C10.4759 18.3846 10.7068 17.6662 10.984 17.0484C11.661 15.5394 12.8975 14.2514 14.4817 13.4048C15.664 12.7729 15.7001 12.7163 15.4513 11.8808C14.8488 9.85707 13.678 7.63361 12.3625 6.01487C11.399 4.82929 8.6058 2.0011 8.02284 1.62081C7.79086 1.46939 7.57219 1.30223 7.537 1.24908C7.42236 1.07612 5.89113 0 5.75972 0C5.68935 0 5.26876 0.563182 4.82502 1.25142ZM19.7566 14.0059C18.0446 14.2985 16.9963 14.6281 15.7819 15.2559C13.4089 16.4824 12.2382 18.476 12.2167 21.3266C12.2077 22.5131 12.4653 24.5141 12.6575 24.7518C12.7074 24.8136 13.2566 24.3167 13.8779 23.6475C15.1033 22.3276 16.9205 20.7878 18.3193 19.884C19.1639 19.3382 19.9485 19.036 19.9485 19.2565C19.9485 19.3136 19.4735 19.8682 18.8929 20.489C17.8869 21.5644 16.6668 23.1755 16.1552 24.1035C15.5184 25.259 14.9658 26.318 14.895 26.5186C14.8274 26.7098 15.0201 26.7658 16.2513 26.9124C17.9618 27.1162 18.7675 26.987 20.1405 26.2886C21.4424 25.6263 22.1383 24.8358 22.9382 23.1109C23.9041 21.028 24.3014 18.8259 24.2999 15.5636L24.299 13.8037L22.5396 13.8173C21.572 13.8248 20.3196 13.9097 19.7566 14.0059Z" fill="#73A812"/>
</svg>
